<svg xmlns="http://www.w3.org/2000/svg" version="1.1" xmlns:xlink="http://www.w3.org/1999/xlink" xmlns:svgjs="http://svgjs.dev/svgjs" width="1500" height="1500" viewBox="0 0 1500 1500"><rect width="1500" height="1500" fill="#000000"></rect><g transform="matrix(0.6666666666666666,0,0,0.6666666666666666,249.39393939393938,435.99032258064517)"><svg viewBox="0 0 396 248" data-background-color="#e0ded5" preserveAspectRatio="xMidYMid meet" height="939" width="1500" xmlns="http://www.w3.org/2000/svg" xmlns:xlink="http://www.w3.org/1999/xlink"><g id="tight-bounds" transform="matrix(1,0,0,1,0.2400000000000091,0.4000000000000057)"><svg viewBox="0 0 395.52 247.2" height="247.2" width="395.52"><g><svg></svg></g><g><svg viewBox="0 0 395.52 247.2" height="247.2" width="395.52"><g transform="matrix(1,0,0,1,145.72675749318802,47.215199999999996)"><svg viewBox="0 0 104.06648501362396 152.7696" height="152.7696" width="104.06648501362396"><g><svg viewBox="0 0 104.06648501362396 152.7696" height="152.7696" width="104.06648501362396"><g><svg viewBox="0 0 104.06648501362396 152.7696" height="152.7696" width="104.06648501362396"><g><svg viewBox="0 0 104.06648501362396 152.7696" height="152.7696" width="104.06648501362396"><g id="textblocktransform"><svg viewBox="0 0 104.06648501362396 152.7696" height="152.7696" width="104.06648501362396" id="textblock"><g><svg viewBox="0 0 104.06648501362396 152.7696" height="152.7696" width="104.06648501362396"><g transform="matrix(1,0,0,1,0,0)"><svg width="104.06648501362396" viewBox="1.15 -35.8 25 36.699999999999996" height="152.7696" data-palette-color="#243cfc"><path d="M15.3-30.6Q16.6-32.25 17.93-33.68 19.25-35.1 20.1-35.45 20.95-35.8 23.55-35.8 26.15-35.8 26.15-35.15L26.15-35.15Q26.15-34.9 25.6-34.6 25.05-34.3 24.1-33.65 23.15-33 20.13-30.1 17.1-27.2 14.05-23.3L14.05-23.3Q13.95-23.2 13.95-23.03 13.95-22.85 14.23-22.8 14.5-22.75 15-22.65 15.5-22.55 16.82-21.88 18.15-21.2 19.2-20.18 20.25-19.15 21.23-17.03 22.2-14.9 22.35-13.03 22.5-11.15 22.65-9.65 22.8-8.15 23.43-5.35 24.05-2.55 24.9-2L24.9-2Q25.15-1.8 25.15-1.5L25.15-1.5Q25.15-0.7 22.95-0.03 20.75 0.65 19.03 0.65 17.3 0.65 17.05-0.75L17.05-0.75Q16.8-2.25 16.7-7.9L16.7-7.9 16.7-9.9Q16.7-15.15 15.2-17.5L15.2-17.5Q13.9-19.55 12.85-19.8L12.85-19.8Q12.05-20.05 12-20.05L12-20.05 11.45-19.8Q10.25-18.4 9.55-17.1 8.85-15.8 8.8-15.2L8.8-15.2 8.7-14.55Q8.7-7.5 9.3-2.5L9.3-2.5Q9.4-1.9 9.4-1.8L9.4-1.8Q9.4-0.7 7.08 0.1 4.75 0.9 3.28 0.9 1.8 0.9 1.8 0.45L1.8 0.45Q1.8 0.15 1.95-0.3L1.95-0.3Q2.45-1.4 2.68-7.58 2.9-13.75 2.9-18.82 2.9-23.9 2.7-27.05L2.7-27.05Q2.4-31.8 1.7-32.75L1.7-32.75Q1.15-33.45 1.15-33.65L1.15-33.65Q1.15-34.35 3.73-35 6.3-35.65 7.88-35.65 9.45-35.65 9.45-34.95L9.45-34.95 9.4-34.3Q8.75-28.9 8.75-22.75L8.75-22.75Q8.75-22.25 8.97-22.25 9.2-22.25 9.5-22.7 9.8-23.15 10.38-23.95 10.95-24.75 12.48-26.85 14-28.95 15.3-30.6Z" opacity="1" transform="matrix(1,0,0,1,0,0)" fill="#ffffff" class="wordmark-text-0" data-fill-palette-color="primary" id="text-0"></path></svg></g></svg></g></svg></g></svg></g></svg></g></svg></g></svg></g><g><path d="M175.633 0c30.402 0 58.24 10.976 79.768 29.183l-11.147 0c-19.26-14.022-42.974-22.294-68.621-22.295-25.647 0-49.361 8.272-68.621 22.295l-11.147 0c21.528-18.206 49.366-29.183 79.768-29.183zM175.633 247.2c-30.402 0-58.24-10.976-79.768-29.183l11.147 0c19.26 14.022 42.974 22.294 68.621 22.295 25.647 0 49.361-8.272 68.621-22.295l11.147 0c-21.528 18.206-49.366 29.183-79.768 29.183z" fill="#ffffff" stroke="transparent" data-fill-palette-color="tertiary"></path></g></svg></g><defs></defs></svg><rect width="395.52" height="247.2" fill="none" stroke="none" visibility="hidden"></rect></g></svg></g></svg>